#Comment line ignore any data following # character 
#Hierarchical Translation and Rotation (.htr) file 
[Header]	
#Header keywords are followed by a single value 
FileType HTR		#Single word string
DataType HTRS		#Translation followed by rotation and scale data
FileVersion 1		#integer
NumSegments 14		#integer
NumFrames 6		#integer
DataFrameRate 30		#integer, data frame rate in this file
EulerRotationOrder ZYX
CalibrationUnits mm
RotationUnits Degrees
GlobalAxisofGravity Y
BoneLengthAxis Y
ScaleFactor 1.00
[SegmentNames&Hierarchy]
#CHILD	PARENT
MASTER GLOBAL
weapon MASTER
barrel_root weapon
middle_left_energyLow_part1 weapon
middle_left_energyLow_part2 weapon
middle_left_root weapon
middle_right_energyLow_part1 weapon
middle_top weapon
barrel1_top_root barrel_root
barrel2_top_root barrel_root
barrel3_top_root barrel_root
barrel1_top_back barrel1_top_root
barrel2_top_back barrel2_top_root
barrel3_top_back barrel3_top_root
[BasePosition]
#SegmentName Tx, Ty, Tz, Rx, Ry, Rz, BoneLength
MASTER 0.000000 0.000000 0.000000 -90.000000 0.000000 0.000000 10.000000 
weapon 0.000000 0.000000 0.000000 0.000000 0.000000 0.000000 10.000000 
barrel_root 0.000000 0.000000 0.000000 0.000000 0.000000 0.000000 10.000000 
middle_left_energyLow_part1 0.000000 0.000000 0.000000 0.000000 0.000000 0.000000 10.000000 
middle_left_energyLow_part2 0.000000 0.000000 0.000000 0.000000 0.000000 0.000000 10.000000 
middle_left_root 0.000000 0.000000 0.000000 0.000000 0.000000 0.000000 10.000000 
middle_right_energyLow_part1 0.000000 0.000000 0.000000 0.000000 0.000000 0.000000 10.000000 
middle_top 0.000000 0.000000 0.000000 0.000000 0.000000 0.000000 10.000000 
barrel1_top_root 0.000000 0.000000 0.000000 0.000000 0.000000 0.000000 10.000000 
barrel2_top_root 0.000000 0.000000 0.000000 0.000000 0.000000 0.000000 10.000000 
barrel3_top_root 0.000000 0.000000 0.000000 0.000000 0.000000 0.000000 10.000000 
barrel1_top_back 0.000000 0.000000 0.000000 0.000000 0.000000 0.000000 10.000000 
barrel2_top_back 0.000000 0.000000 0.000000 0.000000 0.000000 0.000000 10.000000 
barrel3_top_back 0.000000 0.000000 0.000000 0.000000 0.000000 0.000000 10.000000 
#Beginning of Data. Separated by tabs
#Fr	Tx	Ty	Tz	Rx	Ry	Rz	SF
[MASTER]
14 0.000000 0.000000 0.000000 0.000000 -0.000000 0.000000 0.000000
15 0.000000 0.000000 0.000000 0.000000 -0.000000 0.000000 0.000000
16 0.000000 0.000000 0.000000 0.000000 -0.000000 0.000000 0.000000
17 0.000000 0.000000 0.000000 0.000000 -0.000000 0.000000 0.000000
18 0.000000 0.000000 0.000000 0.000000 -0.000000 0.000000 0.000000
19 0.000000 0.000000 0.000000 0.000000 -0.000000 0.000000 0.000000
[weapon]
14 0.000000 -104.980469 30.104752 0.000000 0.000000 -0.000020 109.211700
15 0.000000 -104.980545 30.104752 0.000000 0.000000 -0.000020 109.211769
16 -0.000019 -104.980690 30.104752 0.000000 0.000000 -0.000020 109.211906
17 -0.000019 -104.980545 30.104675 0.000000 0.000000 -0.000020 109.211746
18 -0.000019 -104.980621 30.104752 0.000000 0.000000 -0.000020 109.211845
19 -0.000019 -104.980621 30.104675 0.000000 0.000000 -0.000020 109.211823
[barrel_root]
14 -0.000000 259.831787 -55.258617 0.000000 -0.000000 0.000000 265.642761
15 -0.000000 259.831787 -55.258617 0.000000 -0.000000 0.000000 265.642761
16 -0.000000 259.831787 -55.258617 0.000000 -0.000000 0.000000 265.642761
17 -0.000000 259.831787 -55.258617 0.000000 -0.000000 0.000000 265.642761
18 -0.000000 259.831787 -55.258617 0.000000 -0.000000 0.000000 265.642761
19 -0.000000 259.831787 -55.258617 0.000000 -0.000000 0.000000 265.642761
[middle_left_energyLow_part1]
14 -152.219940 -30.653152 -39.080498 0.001660 0.001658 0.001660 160.118103
15 -152.219940 -30.653152 -39.080498 0.001636 -1.702380 0.001636 160.118103
16 -152.219940 -30.653152 -39.080494 0.001613 -3.406423 0.001613 160.118103
17 -152.219955 -30.653152 -39.080486 0.001636 -1.702382 0.001636 160.118118
18 -152.219955 -30.653152 -39.080479 0.001660 0.001660 0.001660 160.118118
19 -152.219955 -30.653152 -39.080475 0.001660 0.001660 0.001660 160.118118
[middle_left_energyLow_part2]
14 -169.986404 -28.308716 -78.007355 0.001817 9.543016 0.001817 189.161057
15 -169.986404 -28.308716 -78.007355 0.001735 4.772348 0.001735 189.161057
16 -169.986404 -28.308716 -78.007355 0.001660 0.001660 0.001660 189.161057
17 -169.986404 -28.308716 -78.007355 0.001660 0.001660 0.001660 189.161072
18 -169.986404 -28.308716 -78.007355 0.001660 0.001660 0.001660 189.161072
19 -169.986420 -28.308716 -78.007355 0.001660 0.001660 0.001660 189.161087
[middle_left_root]
14 -69.244392 -30.652939 -78.054840 0.003432 -50.001465 179.996567 108.751762
15 -69.244400 -30.652945 -78.054848 0.003432 -50.001465 179.996567 108.751778
16 -69.244400 -30.652950 -78.054863 0.003432 -50.001465 179.996567 108.751785
17 -69.244408 -30.652954 -78.054871 0.003432 -50.001465 179.996567 108.751801
18 -69.244408 -30.652960 -78.054878 0.003432 -50.001465 179.996567 108.751808
19 -69.244415 -30.652964 -78.054893 0.003432 -50.001465 179.996567 108.751823
[middle_right_energyLow_part1]
14 142.814484 -29.615250 -39.080574 0.001660 -0.001662 179.998337 150.997787
15 142.814484 -29.615244 -39.080574 0.001660 -0.001660 179.998337 150.997787
16 142.814499 -29.615236 -39.080566 0.001660 -0.001660 179.998337 150.997787
17 142.814499 -29.615231 -39.080563 0.001660 -0.001660 179.998337 150.997787
18 142.814514 -29.615223 -39.080555 0.001660 -0.001660 179.998337 150.997803
19 142.814514 -29.615217 -39.080547 0.001660 -0.001660 179.998337 150.997803
[middle_top]
14 -3.220482 -45.572456 59.132381 0.000000 -0.000000 0.000000 74.725220
15 -3.220463 -19.155300 59.132229 0.000000 -0.000000 0.000000 62.240803
16 -3.220482 12.375032 59.132381 0.000000 -0.000000 0.000000 60.499187
17 -3.220520 38.792038 59.132381 0.000000 -0.000000 0.000000 70.794296
18 -3.220444 49.870205 59.132229 0.000000 -0.000000 0.000000 77.421120
19 -3.220444 39.400597 59.132309 0.000000 -0.000000 0.000000 71.129517
[barrel1_top_root]
14 0.000081 96.240509 0.000132 0.000000 -0.000000 0.000000 96.240509
15 0.000081 96.240509 0.000132 0.000000 -0.000000 0.000000 96.240509
16 0.000081 96.240509 0.000132 0.000000 -0.000000 0.000000 96.240509
17 0.000081 96.240509 0.000132 0.000000 -0.000000 0.000000 96.240509
18 0.000081 96.240509 0.000132 0.000000 -0.000000 0.000000 96.240509
19 0.000081 96.240509 0.000132 0.000000 -0.000000 0.000000 96.240509
[barrel2_top_root]
14 -0.000009 124.139923 0.000132 179.998825 -79.229210 179.998825 124.139923
15 -0.000009 124.139923 0.000132 179.998825 -71.814720 179.998825 124.139923
16 -0.000009 124.139923 0.000132 179.998810 -65.190262 179.998810 124.139923
17 -0.000009 124.139923 0.000132 179.998795 -59.855358 179.998795 124.139923
18 -0.000009 124.139923 0.000132 179.998779 -56.297108 179.998779 124.139923
19 -0.000009 124.139923 0.000132 179.998779 -54.999702 179.998779 124.139923
[barrel3_top_root]
14 0.000101 69.591400 0.000123 179.971725 85.240952 179.971725 69.591400
15 0.000101 69.591400 0.000123 179.990356 76.034233 179.990356 69.591400
16 0.000101 69.591400 0.000123 179.993912 67.778389 179.993912 69.591400
17 0.000101 69.591400 0.000123 179.995300 61.101460 179.995300 69.591400
18 0.000101 69.591400 0.000123 179.995911 56.632069 179.995911 69.591400
19 0.000101 69.591400 0.000123 179.996094 54.997871 179.996094 69.591400
[barrel1_top_back]
14 -3.343935 98.041893 186.671844 0.000000 -0.000000 0.000000 210.878571
15 -3.343935 98.041893 186.671844 0.000000 -0.000000 0.000000 210.878571
16 -3.343935 98.041893 186.671844 0.000000 -0.000000 0.000000 210.878571
17 -3.343935 98.041893 186.671844 0.000000 -0.000000 0.000000 210.878571
18 -3.343935 98.041893 186.671844 0.000000 -0.000000 0.000000 210.878571
19 -3.343935 98.041893 186.671844 0.000000 -0.000000 0.000000 210.878571
[barrel2_top_back]
14 3.886122 70.142326 185.630630 -0.000096 -0.000041 0.000007 198.478668
15 3.886122 70.142326 185.630630 -0.000096 -0.000041 0.000007 198.478668
16 3.886122 70.142326 185.630630 -0.000096 -0.000041 0.000007 198.478668
17 3.886122 70.142326 185.630630 -0.000096 -0.000041 0.000007 198.478668
18 3.886122 70.142326 185.630630 -0.000096 -0.000041 0.000007 198.478668
19 3.886122 70.142326 185.630630 -0.000096 -0.000041 0.000007 198.478668
[barrel3_top_back]
14 -0.050068 125.495209 180.152344 -0.000049 0.000003 0.000007 219.553894
15 -0.050068 125.495209 180.152344 -0.000049 0.000003 0.000007 219.553894
16 -0.050068 125.495209 180.152344 -0.000049 0.000003 0.000007 219.553894
17 -0.050068 125.495209 180.152344 -0.000049 0.000003 0.000007 219.553894
18 -0.050068 125.495209 180.152344 -0.000049 0.000003 0.000007 219.553894
19 -0.050068 125.495209 180.152344 -0.000049 0.000003 0.000007 219.553894
